<?xml version="1.0" standalone="no"?>
<!DOCTYPE svg PUBLIC "-//W3C//DTD SVG 20010904//EN"
 "http://www.w3.org/TR/2001/REC-SVG-20010904/DTD/svg10.dtd">
<svg version="1.0" xmlns="http://www.w3.org/2000/svg"
 width="521.000000pt" height="521.000000pt" viewBox="0 0 521.000000 521.000000"
 preserveAspectRatio="xMidYMid meet">
<metadata>
Created by potrace 1.14, written by Peter Selinger 2001-2017
</metadata>
<g transform="translate(0.000000,521.000000) scale(0.100000,-0.100000)"
fill="#000000" stroke="none">
<path d="M1470 4632 c-38 -6 -57 -29 -71 -85 -7 -29 -12 -53 -11 -54 0 -2 -4
-17 -9 -35 -5 -18 -12 -46 -15 -63 -3 -16 -12 -57 -20 -90 -9 -33 -17 -67 -19
-75 -2 -8 -19 -83 -39 -166 -19 -84 -37 -164 -40 -178 -3 -14 -7 -34 -10 -44
-3 -9 -7 -28 -10 -42 -2 -14 -18 -81 -34 -150 -17 -69 -58 -244 -91 -390 -65
-282 -71 -308 -96 -410 -9 -36 -18 -76 -21 -90 -3 -14 -16 -70 -29 -125 -66
-274 -229 -984 -232 -1010 -2 -16 3 -38 10 -47 8 -10 88 -67 178 -128 90 -61
208 -141 262 -178 54 -37 105 -71 115 -77 9 -5 19 -13 22 -16 3 -3 39 -27 80
-54 41 -28 77 -52 80 -56 3 -3 61 -43 130 -89 185 -124 357 -240 962 -653 l87
-59 29 18 c16 11 94 65 173 122 183 131 739 525 869 617 55 39 154 108 219
155 66 47 129 92 141 100 12 8 74 53 138 99 65 46 150 106 190 134 40 27 79
59 87 71 14 22 14 26 -124 661 -17 77 -32 151 -35 165 -2 14 -12 57 -21 95 -9
39 -41 183 -70 320 -69 323 -140 656 -166 770 -11 50 -22 101 -24 115 -7 35
-8 40 -58 270 -25 113 -62 282 -81 375 -48 223 -52 238 -76 260 -20 18 -67 19
-1183 20 -639 0 -1173 -1 -1187 -3z m1155 -4160 c-3 -3 -11 0 -18 7 -9 10 -8
11 6 5 10 -3 15 -9 12 -12z"/>
</g>
</svg>
